<svg id="visual" viewBox="0 0 900 600" width="900" height="600" xmlns="http://www.w3.org/2000/svg" xmlns:xlink="http://www.w3.org/1999/xlink" version="1.1"><rect width="900" height="600" fill="#dee5e1"></rect><g><g transform="translate(90 585)"><path d="M56.9 -31.3C68.6 -12.5 69.5 14.1 58.2 32.7C47 51.3 23.5 61.9 0.4 61.7C-22.6 61.4 -45.2 50.3 -55.5 32.3C-65.8 14.3 -63.7 -10.7 -52.4 -29.2C-41.1 -47.8 -20.5 -60 1 -60.6C22.6 -61.2 45.1 -50.1 56.9 -31.3Z" stroke="#a2b4a9" fill="none" stroke-width="1"></path></g><g transform="translate(131 213)"><path d="M13.4 -7.9C15.9 -3.5 15.4 2.6 12.7 7.1C9.9 11.7 5 14.8 0 14.8C-5 14.8 -9.9 11.7 -12.4 7.3C-14.8 3 -14.6 -2.7 -12.1 -7.1C-9.6 -11.6 -4.8 -14.9 0.3 -15C5.5 -15.2 11 -12.4 13.4 -7.9Z" stroke="#a2b4a9" fill="none" stroke-width="1"></path></g><g transform="translate(442 223)"><path d="M15.6 -8.5C18.8 -3.4 19 3.8 15.9 9.1C12.8 14.3 6.4 17.6 -0.3 17.7C-6.9 17.9 -13.9 14.9 -16.6 9.9C-19.4 4.8 -17.9 -2.3 -14.5 -7.6C-11 -12.8 -5.5 -16.2 0.3 -16.4C6.2 -16.6 12.4 -13.6 15.6 -8.5Z" stroke="#a2b4a9" fill="none" stroke-width="1"></path></g><g transform="translate(245 504)"><path d="M36.3 -19.4C44.7 -6.3 47.7 11.5 40.7 23.6C33.8 35.7 16.9 42.2 1.6 41.3C-13.8 40.4 -27.5 32.1 -34.3 20.1C-41.1 8 -40.9 -7.7 -34 -20C-27.2 -32.2 -13.6 -40.9 0.2 -41C13.9 -41.1 27.8 -32.6 36.3 -19.4Z" stroke="#a2b4a9" fill="none" stroke-width="1"></path></g><g transform="translate(870 181)"><path d="M14.5 -7.9C17.8 -2.7 18.8 4.4 16 9.5C13.2 14.7 6.6 18 0.4 17.7C-5.7 17.5 -11.4 13.7 -14 8.6C-16.7 3.5 -16.2 -2.8 -13.4 -7.7C-10.5 -12.7 -5.3 -16.2 0.2 -16.3C5.6 -16.4 11.2 -13.1 14.5 -7.9Z" stroke="#a2b4a9" fill="none" stroke-width="1"></path></g><g transform="translate(46 14)"><path d="M34.6 -20.2C41.8 -7.5 42.5 8.7 35.6 19.7C28.8 30.7 14.4 36.6 0.3 36.4C-13.8 36.2 -27.5 30 -35.1 18.6C-42.7 7.1 -44.1 -9.6 -37.3 -22.1C-30.4 -34.7 -15.2 -43 -0.7 -42.6C13.7 -42.2 27.4 -32.9 34.6 -20.2Z" stroke="#a2b4a9" fill="none" stroke-width="1"></path></g><g transform="translate(464 444)"><path d="M28.4 -15.3C34.3 -6.3 34.7 7 29.1 16.2C23.4 25.4 11.7 30.6 0.6 30.3C-10.5 29.9 -20.9 24 -26.4 14.9C-32 5.7 -32.6 -6.7 -27.3 -15.4C-22.1 -24 -11.1 -28.8 0.1 -28.9C11.3 -29 22.6 -24.3 28.4 -15.3Z" stroke="#a2b4a9" fill="none" stroke-width="1"></path></g><g transform="translate(698 380)"><path d="M15 -8.3C17.9 -3.6 17.6 3.2 14.6 8.6C11.6 13.9 5.8 17.8 0.1 17.7C-5.5 17.6 -11.1 13.6 -13.8 8.4C-16.6 3.2 -16.7 -3.2 -13.9 -7.9C-11.1 -12.5 -5.6 -15.4 0.2 -15.5C6 -15.7 12.1 -13.1 15 -8.3Z" stroke="#a2b4a9" fill="none" stroke-width="1"></path></g><g transform="translate(865 412)"><path d="M15.8 -9C19.6 -2.5 21.3 5.4 18.3 10.8C15.4 16.1 7.7 19 0.7 18.6C-6.3 18.2 -12.7 14.6 -16.4 8.8C-20.1 3.1 -21.1 -4.9 -17.9 -11C-14.8 -17 -7.4 -21.3 -0.7 -20.9C6 -20.5 12 -15.4 15.8 -9Z" stroke="#a2b4a9" fill="none" stroke-width="1"></path></g><g transform="translate(260 6)"><path d="M26.9 -14.8C32.2 -6.3 32 6 26.6 16C21.2 25.9 10.6 33.3 0.3 33.2C-10.1 33 -20.2 25.2 -25.9 15.1C-31.6 5 -32.9 -7.4 -27.9 -15.7C-22.9 -24 -11.4 -28.1 -0.3 -27.9C10.8 -27.8 21.6 -23.2 26.9 -14.8Z" stroke="#a2b4a9" fill="none" stroke-width="1"></path></g><g transform="translate(567 96)"><path d="M26.2 -15C31.7 -5.5 32.6 6.9 27.4 15.2C22.3 23.5 11.1 27.7 0.8 27.3C-9.6 26.8 -19.2 21.7 -24.6 13.3C-30 4.8 -31.2 -6.9 -26.4 -16C-21.6 -25.1 -10.8 -31.5 -0.3 -31.4C10.3 -31.2 20.6 -24.5 26.2 -15Z" stroke="#a2b4a9" fill="none" stroke-width="1"></path></g><g transform="translate(749 562)"><path d="M49.9 -29.9C59.7 -12 59 10.9 49 26.2C38.9 41.5 19.5 49.4 -0.5 49.7C-20.5 50 -41.1 42.8 -49.5 28.4C-57.9 14 -54.3 -7.6 -44 -25.9C-33.7 -44.1 -16.9 -59 1.6 -59.9C20.1 -60.9 40.2 -47.9 49.9 -29.9Z" stroke="#a2b4a9" fill="none" stroke-width="1"></path></g><g transform="translate(10 435)"><path d="M41.7 -25.4C50.3 -9.3 50.8 10.2 42.5 26.3C34.3 42.4 17.1 55.1 0.2 55C-16.8 54.9 -33.6 42 -41.3 26.3C-49 10.5 -47.6 -8.1 -39.2 -24.1C-30.8 -40.2 -15.4 -53.7 0.6 -54C16.6 -54.3 33.2 -41.5 41.7 -25.4Z" stroke="#a2b4a9" fill="none" stroke-width="1"></path></g><g transform="translate(727 4)"><path d="M47.5 -25.8C57.1 -10.8 57.4 11.2 47.9 27.8C38.4 44.4 19.2 55.5 0.4 55.3C-18.3 55 -36.7 43.4 -45.5 27.2C-54.3 11 -53.6 -9.8 -44.4 -24.5C-35.3 -39.3 -17.6 -48 0.7 -48.4C18.9 -48.7 37.9 -40.8 47.5 -25.8Z" stroke="#a2b4a9" fill="none" stroke-width="1"></path></g><g transform="translate(324 346)"><path d="M48.5 -27.6C58.7 -10.4 59.8 12.4 50.2 28.5C40.6 44.7 20.3 54.2 -1 54.8C-22.3 55.4 -44.7 47 -53.7 31.2C-62.8 15.3 -58.6 -8 -47.4 -25.8C-36.3 -43.5 -18.1 -55.6 0.5 -55.9C19.2 -56.2 38.4 -44.7 48.5 -27.6Z" stroke="#a2b4a9" fill="none" stroke-width="1"></path></g><g transform="translate(584 581)"><path d="M35 -21.7C40.5 -10.6 36.9 4.3 29.6 16.8C22.2 29.4 11.1 39.5 -0.2 39.7C-11.6 39.8 -23.2 29.9 -29.6 18C-36 6 -37.2 -8.1 -31.4 -19.4C-25.6 -30.7 -12.8 -39.2 1 -39.7C14.7 -40.3 29.4 -32.9 35 -21.7Z" stroke="#a2b4a9" fill="none" stroke-width="1"></path></g></g></svg>