<svg id="visual" viewBox="0 0 900 600" width="900" height="600" xmlns="http://www.w3.org/2000/svg" xmlns:xlink="http://www.w3.org/1999/xlink" version="1.1"><rect width="900" height="600" fill="#dee5e1"></rect><g><g transform="translate(890 265)"><path d="M47.1 -27.7C56.9 -10.2 57.8 11.8 48.5 29.2C39.2 46.6 19.6 59.3 -0.9 59.8C-21.3 60.4 -42.6 48.6 -52.1 31.1C-61.6 13.7 -59.3 -9.6 -48.6 -27.6C-38 -45.5 -19 -58.2 -0.2 -58.1C18.6 -58 37.3 -45.1 47.1 -27.7Z" stroke="#a2b4a9" fill="none" stroke-width="1"></path></g><g transform="translate(41 185)"><path d="M34.9 -18.8C43.3 -5.7 46.6 11.6 40 23C33.3 34.4 16.7 40 0.4 39.8C-15.9 39.5 -31.7 33.5 -38.8 21.8C-45.8 10.2 -44.1 -7.1 -36.2 -20C-28.2 -32.8 -14.1 -41.1 -0.4 -40.9C13.3 -40.6 26.6 -31.8 34.9 -18.8Z" stroke="#a2b4a9" fill="none" stroke-width="1"></path></g><g transform="translate(898 481)"><path d="M50.3 -30C58.4 -14.9 53.6 6.6 43.1 23.7C32.6 40.8 16.3 53.4 0 53.4C-16.3 53.4 -32.6 40.8 -41.5 24.7C-50.4 8.5 -51.9 -11.2 -43.8 -26.2C-35.7 -41.3 -17.8 -51.6 1.6 -52.6C21.1 -53.5 42.2 -45 50.3 -30Z" stroke="#a2b4a9" fill="none" stroke-width="1"></path></g><g transform="translate(152 317)"><path d="M34.1 -19.5C40.2 -9.3 38.2 5.8 31.1 16.2C24.1 26.6 12.1 32.3 -0.2 32.4C-12.4 32.5 -24.7 26.9 -31.1 16.9C-37.6 6.9 -38 -7.7 -31.9 -18.1C-25.7 -28.4 -12.8 -34.6 0.6 -35C14.1 -35.3 28.1 -29.8 34.1 -19.5Z" stroke="#a2b4a9" fill="none" stroke-width="1"></path></g><g transform="translate(528 527)"><path d="M33.5 -19C39.9 -8.4 39 6.8 32.2 18.1C25.4 29.5 12.7 36.9 0.4 36.7C-12 36.5 -24 28.7 -31.2 17.1C-38.3 5.6 -40.7 -9.6 -34.7 -20.1C-28.7 -30.5 -14.3 -36.2 -0.4 -36C13.6 -35.7 27.2 -29.7 33.5 -19Z" stroke="#a2b4a9" fill="none" stroke-width="1"></path></g><g transform="translate(323 284)"><path d="M23.8 -13.9C28.1 -6.3 27 4.3 22.1 12.6C17.2 20.9 8.6 26.9 -0.4 27.1C-9.3 27.3 -18.6 21.7 -22.4 14.1C-26.2 6.4 -24.4 -3.3 -19.7 -11.2C-15.1 -19 -7.5 -24.9 1.1 -25.6C9.7 -26.2 19.5 -21.5 23.8 -13.9Z" stroke="#a2b4a9" fill="none" stroke-width="1"></path></g><g transform="translate(717 572)"><path d="M13.1 -8.3C15.4 -3.7 14.4 2.1 11.7 6.6C9 11.2 4.5 14.5 -0.4 14.7C-5.3 15 -10.6 12.1 -13.1 7.6C-15.7 3.2 -15.5 -2.8 -12.8 -7.6C-10.2 -12.5 -5.1 -16.2 0.2 -16.3C5.4 -16.4 10.9 -12.9 13.1 -8.3Z" stroke="#a2b4a9" fill="none" stroke-width="1"></path></g><g transform="translate(647 399)"><path d="M47.3 -29.5C56.5 -11.3 56 10.3 46.4 26.7C36.9 43.1 18.5 54.3 0.5 54C-17.4 53.7 -34.8 41.9 -44.1 25.6C-53.4 9.4 -54.6 -11.4 -45.9 -29.3C-37.2 -47.2 -18.6 -62.1 0.2 -62.3C19 -62.4 38.1 -47.7 47.3 -29.5Z" stroke="#a2b4a9" fill="none" stroke-width="1"></path></g><g transform="translate(326 17)"><path d="M14.3 -8C17.3 -3.1 17.6 3.6 14.8 9C12 14.3 6 18.2 -0.6 18.6C-7.2 18.9 -14.3 15.7 -17.1 10.4C-19.8 5.1 -18.2 -2.2 -14.6 -7.4C-11 -12.7 -5.5 -15.8 0.1 -15.8C5.7 -15.9 11.3 -12.8 14.3 -8Z" stroke="#a2b4a9" fill="none" stroke-width="1"></path></g><g transform="translate(101 11)"><path d="M17.1 -9.4C20.3 -4.3 19.8 3.4 16.3 8.7C12.9 13.9 6.4 16.7 -0.2 16.8C-6.9 17 -13.9 14.5 -17.4 9.2C-21 3.9 -21.3 -4.3 -17.8 -9.5C-14.4 -14.8 -7.2 -17.1 -0.1 -17.1C7 -17 13.9 -14.5 17.1 -9.4Z" stroke="#a2b4a9" fill="none" stroke-width="1"></path></g><g transform="translate(762 85)"><path d="M13.8 -8C16.6 -3.1 16.8 3.3 14 7.6C11.3 11.9 5.6 14 0.1 13.9C-5.4 13.9 -10.8 11.6 -13.5 7.3C-16.3 3 -16.5 -3.3 -13.8 -8.2C-11.1 -13 -5.6 -16.5 0 -16.5C5.5 -16.4 11 -13 13.8 -8Z" stroke="#a2b4a9" fill="none" stroke-width="1"></path></g><g transform="translate(176 510)"><path d="M13.3 -8.2C16 -3 16.1 3.2 13.4 8.5C10.8 13.7 5.4 18.2 -0.1 18.2C-5.6 18.3 -11.2 14 -14 8.6C-16.9 3.2 -17 -3.3 -14.2 -8.6C-11.4 -13.8 -5.7 -17.8 -0.2 -17.7C5.3 -17.6 10.6 -13.4 13.3 -8.2Z" stroke="#a2b4a9" fill="none" stroke-width="1"></path></g><g transform="translate(15 563)"><path d="M8.8 -5.2C10.6 -2 10.8 2.2 9 5.2C7.2 8.2 3.6 10.1 -0.2 10.2C-4 10.3 -8.1 8.7 -10.3 5.4C-12.5 2.1 -12.9 -2.8 -10.9 -6.2C-8.9 -9.5 -4.5 -11.2 -0.5 -11C3.5 -10.7 7 -8.4 8.8 -5.2Z" stroke="#a2b4a9" fill="none" stroke-width="1"></path></g><g transform="translate(461 118)"><path d="M28.9 -17.8C34.4 -7.2 33.6 5.9 27.8 16.3C21.9 26.6 11 34.2 -0.7 34.6C-12.3 35 -24.6 28.1 -29.9 18.1C-35.1 8.1 -33.4 -5.1 -27.3 -16.1C-21.1 -27.1 -10.6 -35.9 0.6 -36.3C11.7 -36.6 23.4 -28.4 28.9 -17.8Z" stroke="#a2b4a9" fill="none" stroke-width="1"></path></g><g transform="translate(618 202)"><path d="M31.5 -18.9C37.1 -8.4 35.4 5.5 28.9 16.1C22.4 26.7 11.2 34 -0.5 34.3C-12.2 34.6 -24.4 27.8 -31.7 16.7C-39.1 5.6 -41.6 -10 -35.5 -20.7C-29.4 -31.4 -14.7 -37.4 -0.9 -36.9C12.9 -36.3 25.9 -29.4 31.5 -18.9Z" stroke="#a2b4a9" fill="none" stroke-width="1"></path></g><g transform="translate(359 505)"><path d="M34.9 -19C41.9 -7.9 42.1 8.3 35.2 20.1C28.2 32 14.1 39.5 0.4 39.2C-13.3 39 -26.6 31 -32.8 19.6C-39 8.2 -38.1 -6.7 -31.5 -17.5C-24.8 -28.4 -12.4 -35.4 0.7 -35.8C13.9 -36.2 27.8 -30.2 34.9 -19Z" stroke="#a2b4a9" fill="none" stroke-width="1"></path></g><g transform="translate(482 358)"><path d="M20.4 -12C24.4 -4.8 24.3 4.6 20.2 12.4C16.1 20.2 8 26.5 -0.1 26.5C-8.2 26.5 -16.3 20.3 -21 12.1C-25.7 4 -27 -6.2 -22.9 -13.4C-18.9 -20.6 -9.4 -24.9 -0.6 -24.6C8.2 -24.2 16.3 -19.2 20.4 -12Z" stroke="#a2b4a9" fill="none" stroke-width="1"></path></g></g></svg>